<svg width="16" height="17" viewBox="0 0 16 17" fill="none" xmlns="http://www.w3.org/2000/svg">
<path fill-rule="evenodd" clip-rule="evenodd" d="M9 1.06128C9 0.508995 8.55229 0.0612793 8 0.0612793C7.44772 0.0612793 7 0.508995 7 1.06128V7.06128H1C0.447715 7.06128 0 7.50899 0 8.06128C0 8.61356 0.447715 9.06128 1 9.06128H7V15.0613C7 15.6136 7.44772 16.0613 8 16.0613C8.55229 16.0613 9 15.6136 9 15.0613V9.06128H15C15.5523 9.06128 16 8.61356 16 8.06128C16 7.50899 15.5523 7.06128 15 7.06128H9V1.06128Z" fill="black"/>
</svg>
