<svg width="20" height="20" viewBox="0 0 20 20" fill="none" xmlns="http://www.w3.org/2000/svg">
<path fill-rule="evenodd" clip-rule="evenodd" d="M2 9.02326C2 5.28207 5.11169 2.2093 9 2.2093C12.8883 2.2093 16 5.28207 16 9.02326C16 12.7644 12.8883 15.8372 9 15.8372C5.11169 15.8372 2 12.7644 2 9.02326ZM9 0.209305C4.05175 0.209305 0 4.13339 0 9.02326C0 13.9131 4.05175 17.8372 9 17.8372C11.1201 17.8372 13.0756 17.1169 14.6184 15.9089L18.3012 19.5061C18.6963 19.892 19.3294 19.8845 19.7153 19.4894C20.1012 19.0943 20.0938 18.4612 19.6987 18.0753L16.0463 14.5079C17.268 13.0056 18 11.1017 18 9.02326C18 4.13339 13.9482 0.209305 9 0.209305Z" fill="#13201E"/>
</svg>
