<svg width="23" height="22" viewBox="0 0 23 22" fill="none" xmlns="http://www.w3.org/2000/svg">
<path fill-rule="evenodd" clip-rule="evenodd" d="M1 0C0.447715 0 0 0.447715 0 1C0 1.55228 0.447715 2 1 2H2.19149L3.08367 6.16571C3.08869 6.19584 3.09506 6.22552 3.10272 6.25468L4.68217 13.6294L4.68225 13.6298C4.82861 14.312 5.20825 14.922 5.75581 15.3545C6.30018 15.7846 6.97666 16.0126 7.67003 16H17.44L17.4416 16C18.1244 15.9989 18.7863 15.7649 19.3182 15.3368C19.8498 14.9087 20.2195 14.3123 20.3664 13.6458L20.3666 13.645L22.0162 6.21679C22.082 5.92071 22.0098 5.61079 21.82 5.37422C21.6302 5.13765 21.3433 5 21.04 5H4.87936L3.97783 0.790578C3.87907 0.329457 3.47158 0 3 0H1ZM6.63775 13.2102L5.3077 7H19.7936L18.4138 13.2132L18.4134 13.215C18.3645 13.4373 18.2412 13.6362 18.0639 13.7789C17.8868 13.9215 17.6663 13.9995 17.4389 14L17.4384 14L7.66 14L7.63775 14.0002C7.40521 14.0054 7.17813 13.9294 6.99561 13.7852C6.81318 13.6411 6.68667 13.4379 6.63783 13.2106L6.63775 13.2102ZM4.94995 19.95C4.94995 18.8454 5.84538 17.95 6.94995 17.95C8.05452 17.95 8.94995 18.8454 8.94995 19.95C8.94995 21.0546 8.05452 21.95 6.94995 21.95C5.84538 21.95 4.94995 21.0546 4.94995 19.95ZM15.95 19.95C15.95 18.8454 16.8454 17.95 17.95 17.95C19.0545 17.95 19.95 18.8454 19.95 19.95C19.95 21.0546 19.0545 21.95 17.95 21.95C16.8454 21.95 15.95 21.0546 15.95 19.95Z" fill="#13201E"/>
</svg>
